<svg width="110" height="110" viewBox="0 0 110 110" fill="none" xmlns="http://www.w3.org/2000/svg">
<path d="M96.498 85.0685L75.7135 64.284C78.9537 58.9659 80.6628 52.8564 80.6525 46.629C80.6525 27.8355 64.367 11.5555 45.5735 11.5555C41.1054 11.5548 36.6808 12.4343 32.5526 14.1439C28.4245 15.8534 24.6735 18.3595 21.514 21.519C18.3546 24.6785 15.8485 28.4294 14.1389 32.5576C12.4294 36.6858 11.5498 41.1103 11.5505 45.5785C11.5505 64.3665 27.836 80.652 46.624 80.652C52.6463 80.6574 58.5608 79.0549 63.7565 76.01L84.651 96.9155C85.6336 97.8955 86.9648 98.4459 88.3525 98.4459C89.7403 98.4459 91.0715 97.8955 92.054 96.9155L97.2405 91.729C99.281 89.6885 98.5385 87.109 96.498 85.0685ZM22.0225 45.5785C22.0218 42.4853 22.6304 39.4222 23.8137 36.5642C24.9969 33.7063 26.7315 31.1094 28.9185 28.9219C31.1055 26.7344 33.702 24.9991 36.5597 23.8152C39.4174 22.6313 42.4803 22.022 45.5735 22.022C58.5865 22.022 70.1805 33.6105 70.1805 46.629C70.1791 52.8761 67.6968 58.867 63.2794 63.2843C58.862 67.7017 52.8712 70.184 46.624 70.1855C33.611 70.18 22.0225 58.586 22.0225 45.5785Z" fill="white"/>
</svg>
